<svg xmlns="http://www.w3.org/2000/svg" viewBox="425 2002.13 618.744 556.87">
  <defs>
    <style>
      .cls-1 {
        fill: #545454;
      }
    </style>
  </defs>
  <g id="camera" transform="translate(421 1998.13)">
    <circle id="Ellipse_1" data-name="Ellipse 1" class="cls-1" cx="98.999" cy="98.999" r="98.999" transform="translate(214.373 214.373)"/>
    <path id="Path_1" data-name="Path 1" class="cls-1" d="M220.561,4,163.945,65.874H65.874A61.857,61.857,0,0,0,4,127.749V499A61.857,61.857,0,0,0,65.874,560.87h495A61.857,61.857,0,0,0,622.744,499V127.749A61.857,61.857,0,0,0,560.87,65.874H462.8L406.184,4Zm92.812,464.058A154.686,154.686,0,1,1,468.058,313.372,154.743,154.743,0,0,1,313.372,468.058Z"/>
  </g>
</svg>
